<?xml version="1.0" encoding="UTF-8"?>
<svg id="Camada_1" xmlns="http://www.w3.org/2000/svg" version="1.1" viewBox="0 0 2048 2048">
  <!-- Generator: Adobe Illustrator 30.2.1, SVG Export Plug-In . SVG Version: 2.1.1 Build 1)  -->
  <defs>
    <style>
      .st0 {
        fill: #1b998b;
      }
    </style>
  </defs>
  <path class="st0" d="M433.41,364.08c194.41,2.35,390.56.29,585.16.64l288.12.28c59.45-.02,110.64,1.01,169.82-.89-27.58,78.82-46.25,157.02-71.88,236.91-8.23,25.6-19.37,51.86-26.9,77.43l-671.71.4c-15.78,62.56-33.95,127.93-48.32,190.45,57.37,1.65,123.68.04,181.62.11l350.65-.79c-54.2,48.69-107.94,97.87-161.23,147.54l-179.43,166.96c-88.51-1.4-177.84-.11-266.55-.68-4.12,9.81-11.53,42.83-14.39,54.55l-25.5,103.79c-28.13,113.4-59.09,229.48-85.87,342.61l-357.11.35c11.01-50.1,27.11-108.68,39.91-159.05l71.24-282.79,222.37-877.79Z"/>
  <path class="st0" d="M1590.88,364.24c118.46.65,236.92.61,355.38-.13,1.22,0,2.11,1.16,1.77,2.34-11.89,41.99-21.25,82.59-32.38,124.65-27.85,104.02-55.06,208.22-81.59,312.59l-145.84,561.6-50.2,195.13c-10.18,39.98-19.95,82.08-31.47,121.58-.23.79-.95,1.33-1.77,1.33l-242.09.02c-44.81.11-89.83,1.1-134.61.17-167.57-3.49-288.81-108.09-283.94-280.61.37-5.57.94-11.12,1.71-16.66,18.38-139.37,130.25-260.68,237.75-344.08,1.45-1.13,3.48.34,2.86,2.07-28.64,80.35-62.71,173.24-79.04,256.08-.35,1.75-2.72,2.03-3.48.42-7.22-15.4-12.77-30.15-19.44-45.93-.33-.77-1.14-1.24-1.98-1.12h0c-.47.07-.9.33-1.19.7-6.4,8.21-7.09,12.31-10.32,22.07-16.27,50.23-19.63,109.19,6,156.78,34.25,63.61,112.59,83.72,175.16,48.29,25.8-14.66,46-37.46,57.45-64.84,9.56-22.28,19.26-66.04,25.82-91.13l46.96-180.47,206.66-779.5c.21-.81.95-1.37,1.79-1.37Z"/>
</svg>