<?xml version="1.0" encoding="UTF-8"?>
<svg id="Camada_1" xmlns="http://www.w3.org/2000/svg" version="1.1" viewBox="0 0 1024 1024">
  <!-- Generator: Adobe Illustrator 30.2.1, SVG Export Plug-In . SVG Version: 2.1.1 Build 1)  -->
  <defs>
    <style>
      .st0 {
        fill: #2ec4b6;
      }

      .st1 {
        fill: #0a3d62;
      }
    </style>
  </defs>
  <path class="st1" d="M304.69,201.81c9.74-1.15,18.62,5.69,19.97,15.41,1.36,9.72-5.3,18.73-14.99,20.29-6.45,1.04-12.95-1.49-17-6.61-4.05-5.12-5.02-12.03-2.52-18.07,2.49-6.03,8.06-10.25,14.54-11.02Z"/>
  <path class="st1" d="M540.47,42.48c1.01,4.96,2.3,14.15,4.25,19.85.28.81.04,1.72-.57,2.32-11.35,11.27-19.63,21.13-26.25,33.63-1.32,2.48,2.19,4.67,3.85,2.41,1.25-1.7,2.48-3.36,3.67-4.91,11.4-14.78,25.6-30.18,42.58-38.75,1.51-.76,3.3.29,3.34,1.98.19,8.59.35,13.71,4.19,21.98.45.97.14,2.12-.71,2.76-10.34,7.84-19.09,16.42-26.16,26.73-1.57,2.29,1.55,4.87,3.51,2.89,12.37-12.54,22.28-24.78,42.44-32.83,1.55-.62,3.24.57,3.15,2.23-.43,8.33-.87,13.18,4.28,19.63.85,1.07.63,2.63-.51,3.38-9.12,5.91-14.8,10.37-20.29,16.69-1.83,2.11,1.08,5,3.21,3.21,9.69-8.17,17.71-15.52,33.25-20.99,1.55-.55,3.18.68,3.06,2.32-.34,4.66-.48,8.47,1.86,13.02.74,1.44,1.49,3.15,1.93,4.82.24.9-.12,1.86-.87,2.41-2.22,1.65-4.15,3.1-5.9,4.44-2.31,1.78.19,5.3,2.64,3.7h0s.09-.05.13-.08c7.2-4.13,10.8-5.82,17.72-7.61,1.58-.41,3.08.91,2.84,2.53-.99,6.57-.54,8.45.35,16.17.09.75-.21,1.52-.77,2.02-.52.47-1.03.92-1.52,1.36-2.02,1.81.27,4.99,2.63,3.66,4.16-2.34,8.16-4.3,10.87-4.92,1.12-.26,2.27.37,2.63,1.47,1.41,4.29-2.46,9.21,3.9,15.89.96,1.01.91,2.5-.17,3.38l-9.24,7.46c-.7.56-1.65.68-2.45.27-12.54-6.38-28.04-17.49-42.26-24.61-49.46-24.75-87.86-37.33-141.02-45.18-1.34-.2-2.25-1.5-1.91-2.81,4.44-17.37,13.9-30.94,25.02-44.99,1.07-1.35,3.18-1.07,3.88.5,1.8,4.03,3.47,6.55,6.22,10.65.49.73.51,1.69.07,2.45-4.69,8-7.58,13.49-9.96,19.92-.95,2.57,2.6,4.33,4.06,2.02,13.06-20.66,22.36-35.8,45.44-53.78,1.32-1.03,3.27-.31,3.6,1.33Z"/>
  <path class="st1" d="M143.21,218.68c44.19-1.87,100.62,62.76,126.5,94.84,5.18,6.42,13.7,18.91,12.3,27.53-1.17,7.22-10.45,13.47-17.75,11.09-18.84-6.77-29.83-33.26-39.77-49.28-13.86-20.57-39.54-48.62-62.51-58.75-54.24-23.93-13.2,41.31-9.12,61.07l-15.15-.89c-9.67-25.05-39.01-78.08,5.5-85.6Z"/>
  <g>
    <g>
      <path class="st0" d="M284.09,458.85c-4.05-7.53,3.58-15.91,11.48-12.63,9.34,3.88,18.87,7.08,30.37,8.53,6.92,1.31,17.58-1.34,24.08.82,21.06,7,41.61,13.03,62.97,18.46,3.78.96,6.53,4.23,6.81,8.11,3.6,49.25,15.53,79.56,51.44,107.75,6.01,4.72,14.78.31,14.62-7.32-.29-14.45,1.08-23.12,6.1-37.82,2.09-6.12,9.76-8.1,14.58-3.79,20.38,18.21,36.84,29.65,64.7,40.52,2.88,1.12,5,3.66,5.59,6.69,5.05,25.74,9.28,40.57,18.64,64.99,1.14,2.98.63,6.34-1.34,8.85-3.73,4.75-7.91,9.77-11.48,14.25-17.88,22.38-43.29,53.11-63.95,75.62-3.53,3.85-9.57,3.9-13.18.13-18.88-19.76-39.87-45.44-56.77-65.39-47.61-56.19-93.76-115.88-134.28-177.4-8.52-12.94-20.81-32.58-30.4-50.38Z"/>
      <path class="st0" d="M507.45,23.2c7.64-.11,16.44.13,24.63.8,3.07.25,4.26,4.13,1.84,6.05-11.41,9.09-16.81,13.81-28.19,25.22-1.68,1.69-4.51,1.15-5.51-1.02-1.87-4.06-3.44-8.42-4.93-12.7-.85-2.43-3.99-3.08-5.71-1.17-5.81,6.47-11.93,14.97-16.98,21.88-1.12,1.53-3.28,1.84-4.79.69l-1.6-1.22c-1.85-1.41-4.54-.6-5.27,1.61-4.05,12.08-7.67,26.26-10.87,38.4-.41,1.56-1.88,2.6-3.48,2.5-33.74-2.09-58.37-4.56-77.7-7.49-6.83-1.03-18.64-2.98-30.72,2.65-8.9,4.15-14.57,11.03-20.98,18.73-13.28,15.93-16.08,27.16-21.39,26.41-3.46-.49-6.16-5.81-6.35-10.37-.43-10.24,4.3-13.42,9.83-19.39,52.83-57.08,131.15-88.77,208.16-91.56Z"/>
      <path class="st0" d="M550.02,31.91c-.16-3.06,2.54-5.46,5.58-5.05,10.43,1.43,20.76,3.55,30.93,6.34,60.65,16.46,121.39,58.05,155.58,111.63,2.11,3.3-.43,7.62-4.34,7.44-6.09-.28-12.19-.11-18.26.51-12.73.89-39.22,11.01-50.54,8.33-1.73-.41-3.11-1.8-3.48-3.54-.74-3.48.02-7.88.9-11.96.59-2.79-1.35-5.48-4.17-5.83l-8.24-1.02c-2.61-.32-4.48-2.66-4.26-5.28.3-3.57.76-6.8,1.31-10.31.47-2.95-1.8-5.64-4.79-5.66-3.53-.03-6.96-.1-10.5-.26-2.57-.12-4.64-2.23-4.67-4.81-.05-4.74.17-9.07.48-13.72.2-3.02-2.37-5.49-5.38-5.18-4.56.48-8.62.92-13.31,1-2.65.04-4.87-2-4.98-4.65-.2-4.96,0-10.77.21-15.95.13-3.21-2.81-5.66-5.94-4.95-5.61,1.27-12.02,2.7-16.39,1.54-1.48-.39-2.67-1.51-3.19-2.95-1.6-4.44-1.46-11.92-1.19-18.1.14-3.33-3.06-5.83-6.26-4.87-5.84,1.76-11.24,4.03-17.11,6.03-2.82.96-5.9-.77-6.41-3.71-.87-4.96-1.31-9.98-1.57-15.02Z"/>
    </g>
    <path class="st0" d="M790.08,303.67l.43.38c2.2,4.79-.76,25.25-3.14,38.33-.46,2.51-3.97,2.73-4.75.29l-.3-.93c-2.84-9.31-7.02-18.61-11.13-27.55-.7-1.53.32-3.29,1.99-3.46,7.17-.73,10.02-2.27,16.89-7.07Z"/>
  </g>
  <path class="st1" d="M754.32,167.21c-25.52-7.55-72.84,1.02-94.81,16.25-.42.29-.45.9-.08,1.25,20.73,19.79,38.56,33.78,55.33,57.39.55.78-.5,1.7-1.2,1.04-15.55-14.8-31.42-29.59-49.12-42.23-68.81-49.18-160.46-83.91-245.72-83.28-1.41.01-4.65.54-9.14.34-20.24-.93-27.43-12.53-43.44-15.71-11.66-2.32-24.43.54-33.46,6.14-16.21,10.06-11.22,23.34-29.09,39.5-7.06,6.38-15.77,9.99-32.92,17.81-12.13,5.52-24.35,9.83-40.95,15.11-15.99,5.09-45.36,23.94-60.85,33.94-.52.34-.45,1.11.11,1.37,25.99,12.3,34.09,21.17,55.95,41.51,14.84,13.81,29.86,22.22,45.72,38.86,16.58,17.39,40.32,46.18,5.44,62.35-13.21,6.12-30.41-11.41-42.77-13.4-20.72-3.57-51.41,3.53-72.91.2-.92-.14-.89-1.48.03-1.58,23.24-2.58,50.87-6.26,73.3-3.17.81.11,1.26-.91.61-1.41-25.97-19.95-54.41-21.5-86.19-24.6-12.29-1.2-24.3-3.36-36.56-2.35-19.77,1.64-14.06,23.51-1.4,30.78,8.99,5.17,18.24,7.67,27.25,12.62,18.94,11.47,36.27,24.03,55.69,34.84,21.6,12.39,45.43,18.5,68.47,27.2,19.73,7.45,37.77,19.23,58.88,23.5,16.81,3.4,30.72,2.76,46.55-2.04.82-.25.74-1.43-.1-1.55-20.2-2.92-45.51-7.39-62.82-18.76-.76-.5-.19-1.68.68-1.42,41.86,12.25,64.08,18.91,107.3,5.08.85-.27,1.44.85.74,1.39-13.49,10.28-30.52,16.43-46.71,21.43-.72.22-.76,1.23-.06,1.5,20.36,8.05,42.97,13.16,64.4,17.35.37.07.63.39.63.77.04,40.29,8.08,89.01,42.76,114.52.53.39,1.29-.01,1.29-.67.03-31.33,6.7-31.27,12.25-58.15l-.5-.95c-12.12-22.43-20.9-28.61-28.88-54.66-.27-.88.92-1.44,1.43-.67,31.61,47.34,61.09,86.85,118.59,107.29.68.24,1.31-.48.98-1.11-1.42-2.73-2.86-5.56-4.36-8.17-3.23-6.24-8.73-18.79-9.48-25.51-5.02-44.83-11.46-45.08-45.01-63.97-.76-.43-.39-1.59.48-1.48,49.2,6.36,100.82,5.76,147.28,24.01,29.59,11.62,39.3,30.05,29.66,58.67-.28.84-1.54.64-1.55-.25-.46-25.29-6.39-37.82-32.06-48.92l-.75.83c-23.69,25.84-72.59,13.66-78.71,51.74-1.53,9.54,10.73,22.7,17.7,29.02l.92.82-13.54-1.57c-.51-.06-.94.36-.89.86,3.03,28.4,25.71,88.91,44.18,111.74,8.11,10.02,21.86.62,28.21-9.01,21.83-32.84,26.79-71.21,38.2-107.59,2.55-8.14,27.3-33.94,34.31-42.25,67.21-79.8,56.27-161.24,13.37-247.22-.32-.65.32-1.36,1-1.1,20.9,7.97,34.53,15.32,43.38-13.29,11.14-35.97,5.92-98.16-37.03-110.96ZM244.76,214.59c-5.65.92-10.85.6-12.04-6.02.69-3.15,1.65-3.6,4.04-5.76,5.47-.2,10.47-.02,12.17,6.01-.78,3.3-1.58,3.6-4.17,5.78ZM652,604.11c-1.88,2.03-4.21,2.51-7.57,3.2-2.43.5-4.33.89-6.42.03-1.66-.68-2.59-1.87-4.45-4.26-2.31-2.97-3.68-4.73-3.59-7.09.07-1.64.82-2.77,1.97-4.46,1.68-2.45,4.74-6.92,9.3-7.04,2.56-.07,4.44,1.27,6.88,3.01,2.4,1.71,4.89,3.49,5.89,6.85.92,3.08.47,7.1-2.02,9.78ZM276.14,221.54c-1.79-16.69,10.34-31.65,27.04-33.34,16.56-1.68,31.36,10.33,33.14,26.88,1.78,16.55-10.14,31.43-26.68,33.31-16.68,1.89-31.71-10.15-33.51-26.84ZM195.73,370.63c12.13-.2,62.16,14.26,75.39,17.66,6.67,1.72,33.96,8.41,39.79,10.76-33.77,3.1-84.75-14.13-115.18-28.42ZM301.54,373.41c23.18,6.96,41.62,14.54,66.83,8.87,15.84-3.43,29.63-13.09,38.27-26.8,17.45-28.25,8.41-74.05,1.52-104.38,4.43,2.81,6.88,10.38,9,15.03,10.73,23.45,15.9,64.27,5.27,88.51-6.77,15.15-19.25,27-34.73,32.97-24.48,9.45-48.06,4.58-71.13-5.75-6.28-2.88-9.18-4.67-15.03-8.46ZM499.84,314.19c-9.77,75.03-83.49,117.48-153.14,100.18-4.8-1.4-9.46-3.73-14.01-5.83,17.83,1.93,30.49,3.86,48.84,1.81,33.2-3.72,65.79-20.31,87.02-46.18,14.24-17.36,17.86-42.86,24.68-63.38,4.65-12.52,14.63-25.15,12.39-39.15-1.17-6-10.03-14.93-14.73-18.71-15.34-12.36-24.01-27.92-36.28-42.67-4.57-5.49-12.42-11.46-18.16-15.83,6.34.66,10.2,3.72,15.43,7.03,14.25,9.02,22.83,22.86,34.49,34.63,9.03,9.11,19.71,15.78,26.59,27.18,12.1,20.02-11.37,40.71-13.11,60.94ZM707.33,324.9c-11.2,6.33-20.07,11.58-29.69,21.3-24.06,24.33-40.31,61.36-77.05,69.36-23.96,5.22-53.57-8.73-75.38-22.07-1.5-.92-.43-3.22,1.25-2.69,23.22,7.25,40.49,19.21,67.28,17.11.07,0,.13-.01.2-.02,32.76-5.71,51.03-40.36,71.73-62.73,7.42-8.01,11.99-11.65,20.17-17.28,1.06-.73.78-2.38-.46-2.69-46.28-11.58-97.72-4.83-142.65,9.45-7.95,2.53-20.01,7.37-27.93,5.41l-.38-1.27c4.45-4.24,13.41-6.68,19.24-8.96,28.57-11.14,53.43-17.04,83.99-19.66,27.66-3.31,62.85,2.86,89.46,12.05,1.21.42,1.34,2.08.23,2.71Z"/>
  <g>
    <path class="st0" d="M87.43,1006.23c-5.03,0-9.14-1.53-12.31-4.57-3.18-3.04-4.77-7.08-4.77-12.11v-66.72c0-2.64-1.33-3.97-3.97-3.97h-5.56c-4.77,0-8.34-1.45-10.72-4.37-2.38-2.91-3.57-6.62-3.57-11.12,0-4.77,1.19-8.67,3.57-11.72,2.38-3.04,5.96-4.57,10.72-4.57h5.56c2.64,0,3.97-1.32,3.97-3.97v-8.34c0-14.56,3.9-25.75,11.72-33.56,7.81-7.81,18.07-11.72,30.78-11.72,2.91,0,6.16.2,9.73.6,3.57.4,6.42.99,8.54,1.79,3.7,1.33,6.42,3.44,8.14,6.36,1.72,2.92,2.58,5.96,2.58,9.14,0,4.24-1.33,8.14-3.97,11.72-2.65,3.57-6.36,5.36-11.12,5.36-2.12,0-4.11-.26-5.96-.79-1.86-.53-3.84-.79-5.96-.79-6.36,0-9.53,4.51-9.53,13.5v6.75c0,2.65,1.32,3.97,3.97,3.97h14.7c4.5,0,8.27,1.59,11.32,4.77,3.04,3.18,4.57,7.02,4.57,11.52s-1.53,8.21-4.57,11.12c-3.05,2.92-6.95,4.37-11.72,4.37h-14.3c-2.65,0-3.97,1.33-3.97,3.97v66.72c0,4.77-1.66,8.74-4.96,11.92-3.31,3.18-7.61,4.77-12.91,4.77ZM177.99,865.23c-5.56,0-10.33-1.79-14.3-5.36-3.97-3.57-5.96-8.14-5.96-13.7,0-5.03,1.99-9.4,5.96-13.11,3.97-3.71,8.74-5.56,14.3-5.56s9.86,1.85,13.7,5.56c3.84,3.71,5.76,8.08,5.76,13.11,0,5.56-1.92,10.13-5.76,13.7-3.84,3.57-8.41,5.36-13.7,5.36ZM177.99,1006.23c-5.03,0-9.27-1.46-12.71-4.37-3.44-2.91-5.16-6.62-5.16-11.12v-90.16c0-4.23,1.65-7.88,4.96-10.92,3.31-3.04,7.61-4.57,12.91-4.57s9.46,1.53,12.51,4.57c3.04,3.05,4.57,6.82,4.57,11.32v89.36c0,4.51-1.66,8.28-4.96,11.32-3.31,3.04-7.35,4.57-12.11,4.57Z"/>
    <path class="st0" d="M268.54,1006.23c-18.01,0-32.84-3.71-44.48-11.12-2.38-1.59-4.11-3.51-5.16-5.76-1.06-2.25-1.59-4.43-1.59-6.55,0-4.5,1.52-8.6,4.57-12.31,3.04-3.7,6.81-5.56,11.32-5.56,2.12,0,4.23.53,6.35,1.59,4.77,2.12,10.19,3.91,16.28,5.36,6.09,1.46,11.65,2.19,16.68,2.19,9.79,0,14.7-2.25,14.7-6.75,0-2.64-1.19-4.97-3.57-6.95s-7.94-3.38-16.68-4.17c-3.44-.26-7.88-.79-13.31-1.59-5.43-.79-10.79-2.32-16.09-4.57-5.3-2.25-9.73-5.62-13.31-10.13-3.57-4.5-5.36-10.59-5.36-18.27,0-11.92,4.5-21.31,13.5-28.2,9-6.88,21.05-10.33,36.14-10.33,8.74,0,17.01.93,24.82,2.78,7.81,1.86,13.7,4.64,17.67,8.34,3.7,3.44,5.56,7.42,5.56,11.92,0,3.97-1.46,7.55-4.37,10.72-2.92,3.18-6.62,4.77-11.12,4.77-2.38,0-4.64-.53-6.75-1.59-3.18-2.12-7.22-3.7-12.11-4.77-4.9-1.06-9.87-1.59-14.89-1.59-10.07,0-15.09,2.12-15.09,6.36,0,1.86.99,3.51,2.98,4.96,1.99,1.46,6.55,2.72,13.7,3.77,4.5.53,9.66,1.26,15.49,2.19,5.82.93,11.45,2.52,16.88,4.77,5.42,2.25,9.99,5.9,13.7,10.92,3.71,5.03,5.56,11.92,5.56,20.65,0,11.91-4.77,21.38-14.3,28.4-9.53,7.01-22.11,10.52-37.73,10.52Z"/>
    <path class="st0" d="M360.29,1006.23c-5.03,0-9.27-1.46-12.71-4.37-3.44-2.91-5.16-6.62-5.16-11.12v-147.75c0-4.23,1.65-7.87,4.96-10.92,3.31-3.04,7.61-4.57,12.91-4.57,5.03,0,9.14,1.53,12.31,4.57,3.18,3.05,4.77,6.82,4.77,11.32v52.82c3.44-3.97,8.07-7.15,13.9-9.53,5.82-2.38,12.05-3.57,18.67-3.57,14.83,0,26.81,4.37,35.94,13.11,9.13,8.74,13.7,22.64,13.7,41.7v53.62c0,4.24-1.66,7.74-4.96,10.52-3.31,2.78-7.48,4.17-12.51,4.17s-9.2-1.46-12.51-4.37c-3.31-2.91-4.96-6.62-4.96-11.12v-48.46c0-9.79-2.18-16.81-6.55-21.05-4.37-4.23-9.73-6.36-16.09-6.36s-12.05,2.19-16.28,6.55c-4.24,4.37-7.02,9.2-8.34,14.5v54.41c0,4.51-1.66,8.28-4.96,11.32-3.31,3.04-7.35,4.57-12.11,4.57Z"/>
    <path class="st0" d="M507.63,865.23c-5.56,0-10.33-1.79-14.3-5.36-3.97-3.57-5.96-8.14-5.96-13.7,0-5.03,1.99-9.4,5.96-13.11,3.97-3.71,8.74-5.56,14.3-5.56s9.86,1.85,13.7,5.56c3.84,3.71,5.76,8.08,5.76,13.11,0,5.56-1.92,10.13-5.76,13.7-3.84,3.57-8.41,5.36-13.7,5.36ZM507.63,1006.23c-5.03,0-9.27-1.46-12.71-4.37-3.44-2.91-5.16-6.62-5.16-11.12v-90.16c0-4.23,1.65-7.88,4.97-10.92,3.31-3.04,7.61-4.57,12.91-4.57s9.46,1.53,12.51,4.57c3.04,3.05,4.57,6.82,4.57,11.32v89.36c0,4.51-1.66,8.28-4.96,11.32-3.31,3.04-7.35,4.57-12.11,4.57Z"/>
    <path class="st0" d="M656.57,1006.23c-5.03,0-9.2-1.46-12.51-4.37-3.31-2.91-4.96-6.62-4.96-11.12v-48.46c0-9.79-2.18-16.81-6.55-21.05-4.37-4.23-9.73-6.36-16.09-6.36s-12.11,2.12-16.48,6.36c-4.37,4.24-7.09,9.14-8.14,14.7v53.22c0,4.51-1.66,8.28-4.96,11.32-3.31,3.04-7.35,4.57-12.11,4.57-5.03,0-9.27-1.46-12.71-4.37-3.44-2.91-5.16-6.61-5.16-11.12v-88.97c0-4.23,1.65-7.88,4.96-10.92,3.31-3.04,7.61-4.57,12.91-4.57,4.23,0,7.81,1.13,10.72,3.38,2.91,2.25,4.9,5.1,5.96,8.54,7.15-9.27,18-13.9,32.57-13.9s26.87,4.37,36.14,13.11c9.27,8.74,13.9,22.64,13.9,41.7v53.62c0,4.24-1.66,7.74-4.97,10.52-3.31,2.78-7.48,4.17-12.51,4.17Z"/>
    <path class="st0" d="M753.48,1006.23c-11.39,0-20.79-3.31-28.2-9.93-7.42-6.62-11.12-16.81-11.12-30.58v-42.89c0-2.64-1.33-3.97-3.97-3.97h-5.96c-4.77,0-8.34-1.45-10.72-4.37-2.38-2.91-3.57-6.62-3.57-11.12,0-4.77,1.19-8.67,3.57-11.72,2.38-3.04,5.96-4.57,10.72-4.57h5.96c2.64,0,3.97-1.32,3.97-3.97v-29.39c0-4.5,1.59-8.34,4.77-11.52,3.18-3.18,7.28-4.77,12.31-4.77s9.2,1.53,12.51,4.57c3.31,3.05,4.96,6.95,4.96,11.72v29.39c0,2.65,1.32,3.97,3.97,3.97h14.7c4.5,0,8.27,1.59,11.32,4.77,3.04,3.18,4.57,7.02,4.57,11.52s-1.53,8.21-4.57,11.12c-3.05,2.92-6.95,4.37-11.72,4.37h-14.3c-2.65,0-3.97,1.33-3.97,3.97v37.33c0,4.77.86,8.08,2.58,9.93,1.72,1.85,3.9,2.78,6.55,2.78,1.06,0,3.18-.33,6.36-.99,3.18-.66,5.16-.99,5.96-.99,4.23,0,7.81,1.59,10.72,4.77,2.91,3.18,4.37,7.02,4.37,11.52,0,3.44-.99,6.62-2.98,9.53-1.99,2.92-5.1,5.03-9.33,6.36-3.44,1.05-6.75,1.85-9.93,2.38-3.18.53-6.35.79-9.53.79Z"/>
    <path class="st0" d="M861.11,1006.23c-18.01,0-33.16-5.36-45.48-16.09-12.31-10.72-18.47-25.48-18.47-44.28s6.02-34.95,18.07-46.07c12.05-11.12,27.21-16.68,45.48-16.68,12.97,0,23.69,2.38,32.17,7.15,8.47,4.77,14.83,10.86,19.07,18.27,4.23,7.42,6.35,15.23,6.35,23.43,0,13.77-6.09,20.65-18.27,20.65h-65.93c-2.12,0-3.18,1.33-3.18,3.97,0,6.09,3.38,10.92,10.13,14.5,6.75,3.57,14.36,5.36,22.84,5.36,5.29,0,10.59-.73,15.89-2.18,5.29-1.45,9.93-3.64,13.9-6.55,2.64-1.85,5.42-2.78,8.34-2.78,3.97,0,7.35,1.46,10.13,4.37,2.78,2.92,4.17,6.35,4.17,10.33,0,4.77-2.52,9.27-7.55,13.5-4.77,3.97-11.72,7.15-20.85,9.53-9.14,2.38-18.07,3.57-26.81,3.57ZM881.77,929.57c.53,0,1.25-.13,2.19-.4.92-.26,1.39-1.19,1.39-2.78,0-3.97-2.45-7.61-7.35-10.92-4.9-3.31-11.19-4.96-18.87-4.96-8.21,0-14.89,1.79-20.06,5.36-5.16,3.57-7.74,7.22-7.74,10.92,0,1.86,1.06,2.78,3.18,2.78h47.26Z"/>
    <path class="st0" d="M960.4,1006.23c-5.03,0-9.27-1.46-12.71-4.37-3.44-2.91-5.16-6.62-5.16-11.12v-147.75c0-4.23,1.65-7.87,4.97-10.92,3.31-3.04,7.61-4.57,12.91-4.57,5.03,0,9.13,1.53,12.31,4.57,3.18,3.05,4.77,6.82,4.77,11.32v146.95c0,4.51-1.66,8.28-4.96,11.32-3.31,3.04-7.35,4.57-12.11,4.57Z"/>
  </g>
</svg>