<?xml version="1.0" encoding="UTF-8"?>
<svg id="Camada_1" xmlns="http://www.w3.org/2000/svg" version="1.1" viewBox="0 0 2048 2048">
  <!-- Generator: Adobe Illustrator 30.2.1, SVG Export Plug-In . SVG Version: 2.1.1 Build 1)  -->
  <defs>
    <style>
      .st0 {
        fill: #1b998b;
      }

      .st1 {
        fill: #f8f9fa;
      }
    </style>
  </defs>
  <g>
    <path class="st0" d="M649.4,384.17c123.31,1.49,247.72.19,371.15.41l182.75.18c37.71-.01,70.18.64,107.71-.57-17.5,49.99-29.33,99.59-45.59,150.27-5.22,16.23-12.29,32.89-17.06,49.11l-426.05.25c-10.01,39.68-21.53,81.14-30.65,120.8,36.39,1.04,78.45.02,115.2.07l222.41-.5c-34.38,30.88-68.46,62.08-102.26,93.58l-113.81,105.9c-56.14-.89-112.8-.07-169.07-.43-2.61,6.22-7.31,27.16-9.13,34.6l-16.17,65.83c-17.84,71.93-37.48,145.55-54.46,217.31l-226.51.22c6.98-31.78,17.2-68.93,25.31-100.88l45.18-179.37,141.04-556.76Z"/>
    <path class="st0" d="M1383.56,384.27c75.14.41,150.27.38,225.41-.08.78,0,1.34.74,1.13,1.49-7.54,26.63-13.48,52.38-20.54,79.06-17.67,65.98-34.92,132.07-51.75,198.27l-92.5,356.21-31.84,123.77c-6.45,25.36-12.65,52.06-19.96,77.12-.15.5-.6.84-1.12.84h-153.55c-28.42.08-56.98.7-85.38.12-106.29-2.22-183.18-68.56-180.09-177.99.24-3.54.6-7.05,1.08-10.57,11.66-88.4,82.61-165.34,150.8-218.24.92-.71,2.21.22,1.82,1.31-18.16,50.96-39.77,109.88-50.13,162.43-.22,1.11-1.72,1.29-2.2.26-4.58-9.77-8.1-19.12-12.33-29.13-.21-.49-.73-.79-1.25-.71h0c-.3.04-.57.21-.76.44-4.06,5.21-4.5,7.81-6.54,14-10.32,31.86-12.45,69.26,3.81,99.44,21.73,40.35,71.41,53.1,111.1,30.63,16.37-9.3,29.18-23.76,36.44-41.13,6.06-14.13,12.22-41.89,16.38-57.8l29.78-114.47,131.08-494.42c.14-.51.6-.87,1.13-.87Z"/>
  </g>
  <g>
    <path class="st1" d="M83.77,1656.68v-261.08h66.52v261.08h-66.52ZM143.13,1449.96v-54.36h100.86v54.36h-100.86ZM143.13,1555.47v-54.36h96.92v54.36h-96.92Z"/>
    <path class="st1" d="M284.76,1656.68v-261.08h66.52v261.08h-66.52Z"/>
    <path class="st1" d="M497.91,1663.83c-24.32,0-44.77-3.82-61.34-11.45-16.57-7.63-29.09-18.06-37.55-31.29-8.47-13.23-12.7-28.43-12.7-45.6h64.38c0,6.2,1.73,11.86,5.19,16.99,3.45,5.13,8.64,9.12,15.56,11.98,6.91,2.86,15.74,4.29,26.47,4.29,9.3,0,17.22-1.19,23.78-3.58,6.55-2.38,11.56-5.72,15.02-10.01,3.45-4.29,5.19-9.42,5.19-15.38,0-7.63-3.22-13.53-9.66-17.7-6.44-4.17-17.29-6.85-32.54-8.05l-16.81-1.43c-26.95-2.38-48.4-10.85-64.38-25.39-15.98-14.54-23.96-33.85-23.96-57.94,0-17.17,3.99-31.83,11.98-43.99,7.99-12.16,19.25-21.46,33.8-27.9,14.54-6.44,31.71-9.66,51.5-9.66,21.46,0,39.64,3.58,54.54,10.73,14.9,7.15,26.29,17.23,34.16,30.22,7.87,13,11.8,28.08,11.8,45.24h-64.38c0-5.72-1.43-10.96-4.29-15.74-2.86-4.77-6.97-8.52-12.34-11.27-5.36-2.74-11.86-4.11-19.49-4.11-7.15,0-13.18,1.13-18.06,3.4-4.89,2.27-8.58,5.43-11.09,9.48-2.5,4.06-3.75,8.58-3.75,13.59,0,6.68,2.26,12.4,6.79,17.17,4.53,4.77,12.39,7.63,23.6,8.58l16.81,1.43c19.55,1.67,36.84,5.9,51.86,12.7,15.02,6.79,26.82,16.04,35.41,27.72,8.58,11.69,12.88,25.99,12.88,42.92s-4.35,31.71-13.05,44.35c-8.71,12.64-21.1,22.42-37.2,29.33s-35.47,10.37-58.12,10.37Z"/>
    <path class="st1" d="M640.61,1656.68v-261.08h66.52v261.08h-66.52ZM695.69,1554.03v-57.94h122.31v57.94h-122.31ZM806.56,1656.68v-261.08h66.52v261.08h-66.52Z"/>
    <path class="st1" d="M926.72,1656.68v-261.08h66.52v261.08h-66.52Z"/>
    <path class="st1" d="M1046.89,1656.68v-261.08h109.08l86.91,208.15h12.52l-7.15,6.44v-214.59h62.23v261.08h-109.8l-86.91-208.15h-12.52l7.15-6.44v214.58h-61.51Z"/>
    <path class="st1" d="M1344.09,1453.54v-57.94h209.58v57.94h-209.58ZM1415.62,1656.68v-210.29h66.52v210.29h-66.52Z"/>
    <path class="st1" d="M1587.28,1656.68v-261.08h64.38v261.08h-64.38ZM1644.5,1449.96v-54.36h108.01v54.36h-108.01ZM1644.5,1551.17v-54.36h102.64v54.36h-102.64ZM1644.5,1656.68v-54.36h110.15v54.36h-110.15Z"/>
    <path class="st1" d="M1799,1656.68v-261.08h66.52v261.08h-66.52ZM1858.37,1656.68v-57.94h105.86v57.94h-105.86Z"/>
  </g>
</svg>