<?xml version="1.0" encoding="UTF-8"?>
<svg id="Camada_1" xmlns="http://www.w3.org/2000/svg" version="1.1" viewBox="0 0 430 290">
  <!-- Generator: Adobe Illustrator 30.2.1, SVG Export Plug-In . SVG Version: 2.1.1 Build 1)  -->
  <defs>
    <style>
      .st0 {
        fill: #1b998b;
      }

      .st1 {
        fill: #f8f9fa;
      }
    </style>
  </defs>
  <g>
    <path class="st0" d="M131.76,2.82c27.4.33,55.05.04,82.48.09l40.61.04c8.38,0,15.6.14,23.94-.13-3.89,11.11-6.52,22.13-10.13,33.39-1.16,3.61-2.73,7.31-3.79,10.91l-94.68.06c-2.22,8.82-4.78,18.03-6.81,26.84,8.09.23,17.43,0,25.6.02l49.42-.11c-7.64,6.86-15.21,13.8-22.72,20.8l-25.29,23.53c-12.48-.2-25.07-.02-37.57-.1-.58,1.38-1.62,6.04-2.03,7.69l-3.59,14.63c-3.96,15.98-8.33,32.34-12.1,48.29l-50.33.05c1.55-7.06,3.82-15.32,5.62-22.42l10.04-39.86L131.75,2.82h0Z"/>
    <path class="st0" d="M294.9,2.84c16.7.09,33.39.08,50.09-.02.17,0,.3.16.25.33-1.68,5.92-3,11.64-4.56,17.57-3.93,14.66-7.76,29.35-11.5,44.06l-20.56,79.16-7.08,27.5c-1.43,5.64-2.81,11.57-4.44,17.14-.03.11-.13.19-.25.19h-34.12c-6.32.02-12.66.16-18.97.03-23.62-.49-40.71-15.24-40.02-39.55.05-.79.13-1.57.24-2.35,2.59-19.64,18.36-36.74,33.51-48.5.2-.16.49.05.4.29-4.04,11.32-8.84,24.42-11.14,36.09-.05.25-.38.29-.49.06-1.02-2.17-1.8-4.25-2.74-6.47-.05-.11-.16-.18-.28-.16h0c-.07,0-.13.05-.17.1-.9,1.16-1,1.74-1.45,3.11-2.29,7.08-2.77,15.39.85,22.1,4.83,8.97,15.87,11.8,24.69,6.81,3.64-2.07,6.48-5.28,8.1-9.14,1.35-3.14,2.72-9.31,3.64-12.84l6.62-25.44L294.65,3.03c.03-.11.13-.19.25-.19h0Z"/>
  </g>
  <g>
    <path class="st1" d="M6.06,285.59v-58.02h14.78v58.02H6.06ZM19.25,239.66v-12.08h22.41v12.08h-22.41ZM19.25,263.1v-12.08h21.54v12.08h-21.54Z"/>
    <path class="st1" d="M50.73,285.59v-58.02h14.78v58.02h-14.78Z"/>
    <path class="st1" d="M98.09,287.18c-5.4,0-9.95-.85-13.63-2.54s-6.46-4.01-8.34-6.95c-1.88-2.94-2.82-6.32-2.82-10.13h14.31c0,1.38.38,2.64,1.15,3.78.77,1.14,1.92,2.03,3.46,2.66,1.54.64,3.5.95,5.88.95,2.07,0,3.83-.26,5.28-.8,1.46-.53,2.57-1.27,3.34-2.22.77-.95,1.15-2.09,1.15-3.42,0-1.7-.72-3.01-2.15-3.93-1.43-.93-3.84-1.52-7.23-1.79l-3.74-.32c-5.99-.53-10.76-2.41-14.31-5.64-3.55-3.23-5.32-7.52-5.32-12.88,0-3.82.89-7.07,2.66-9.78,1.78-2.7,4.28-4.77,7.51-6.2,3.23-1.43,7.05-2.15,11.44-2.15,4.77,0,8.81.8,12.12,2.38s5.84,3.83,7.59,6.72c1.75,2.89,2.62,6.24,2.62,10.05h-14.31c0-1.27-.32-2.44-.95-3.5-.64-1.06-1.55-1.89-2.74-2.5-1.19-.61-2.64-.91-4.33-.91-1.59,0-2.93.25-4.01.76-1.09.5-1.91,1.21-2.46,2.11-.56.9-.83,1.91-.83,3.02,0,1.48.5,2.76,1.51,3.82s2.75,1.7,5.24,1.91l3.74.32c4.34.37,8.19,1.31,11.52,2.82,3.34,1.51,5.96,3.56,7.87,6.16,1.91,2.6,2.86,5.78,2.86,9.54s-.97,7.05-2.9,9.86c-1.94,2.81-4.69,4.98-8.27,6.52s-7.88,2.3-12.92,2.3h0Z"/>
    <path class="st1" d="M129.8,285.59v-58.02h14.78v58.02h-14.78ZM142.04,262.78v-12.88h27.18v12.88h-27.18ZM166.68,285.59v-58.02h14.78v58.02h-14.78Z"/>
    <path class="st1" d="M193.38,285.59v-58.02h14.78v58.02h-14.78Z"/>
    <path class="st1" d="M220.09,285.59v-58.02h24.24l19.31,46.25h2.78l-1.59,1.43v-47.69h13.83v58.02h-24.4l-19.31-46.25h-2.78l1.59-1.43v47.68h-13.67,0Z"/>
    <path class="st1" d="M286.13,240.45v-12.88h46.57v12.88h-46.57ZM302.03,285.59v-46.73h14.78v46.73h-14.78Z"/>
    <path class="st1" d="M340.17,285.59v-58.02h14.31v58.02h-14.31ZM352.89,239.66v-12.08h24v12.08h-24ZM352.89,262.15v-12.08h22.81v12.08h-22.81ZM352.89,285.59v-12.08h24.48v12.08h-24.48Z"/>
    <path class="st1" d="M387.22,285.59v-58.02h14.78v58.02h-14.78ZM400.41,285.59v-12.88h23.52v12.88h-23.52Z"/>
  </g>
</svg>