<?xml version="1.0" encoding="UTF-8"?>
<svg id="Camada_1" xmlns="http://www.w3.org/2000/svg" version="1.1" viewBox="0 0 1024 1024">
  <!-- Generator: Adobe Illustrator 30.2.1, SVG Export Plug-In . SVG Version: 2.1.1 Build 1)  -->
  <defs>
    <style>
      .st0 {
        fill: #2ec4b6;
      }

      .st1 {
        fill: #0a3d62;
      }
    </style>
  </defs>
  <path class="st1" d="M324.64,266.48c12.78-1.51,24.42,7.47,26.2,20.21,1.78,12.74-6.96,24.57-19.66,26.61-8.46,1.36-16.99-1.96-22.3-8.68-5.31-6.72-6.58-15.78-3.31-23.7,3.27-7.92,10.57-13.44,19.07-14.45Z"/>
  <path class="st1" d="M633.89,57.5c1.33,6.51,3.02,18.56,5.57,26.04.36,1.07.05,2.25-.75,3.05-14.88,14.78-25.75,27.71-34.43,44.11-1.73,3.26,2.87,6.13,5.06,3.16,1.64-2.24,3.25-4.41,4.82-6.45,14.95-19.39,33.58-39.58,55.85-50.83,1.98-1,4.33.38,4.38,2.6.25,11.27.45,17.98,5.5,28.83.59,1.27.18,2.78-.93,3.63-13.57,10.28-25.04,21.53-34.32,35.06-2.06,3.01,2.04,6.39,4.6,3.79,16.23-16.44,29.22-32.51,55.67-43.06,2.03-.81,4.24.74,4.13,2.93-.56,10.93-1.14,17.29,5.61,25.74,1.12,1.4.83,3.45-.67,4.43-11.96,7.75-19.42,13.6-26.61,21.89-2.4,2.76,1.42,6.56,4.22,4.2,12.71-10.72,23.23-20.36,43.61-27.53,2.04-.72,4.17.89,4.01,3.04-.45,6.12-.63,11.11,2.44,17.08.97,1.89,1.95,4.13,2.53,6.32.31,1.18-.16,2.44-1.14,3.16-2.91,2.17-5.44,4.06-7.73,5.83-3.03,2.34.25,6.95,3.46,4.85h0c.06-.04.11-.07.17-.1,9.44-5.42,14.17-7.63,23.24-9.98,2.07-.54,4.04,1.2,3.72,3.31-1.3,8.62-.71,11.08.46,21.21.11.99-.27,1.99-1.01,2.65-.68.61-1.35,1.2-1.99,1.78-2.65,2.37.36,6.55,3.45,4.81,5.46-3.07,10.7-5.64,14.25-6.46,1.47-.34,2.98.49,3.45,1.92,1.85,5.63-3.22,12.08,5.12,20.85,1.26,1.32,1.19,3.28-.23,4.43l-12.12,9.79c-.91.74-2.16.89-3.21.36-16.45-8.37-36.78-22.95-55.43-32.28-64.88-32.46-115.24-48.96-184.98-59.26-1.75-.26-2.95-1.97-2.51-3.69,5.83-22.79,18.23-40.58,32.82-59.01,1.4-1.77,4.17-1.41,5.09.65,2.36,5.28,4.56,8.59,8.16,13.96.64.96.67,2.22.09,3.22-6.16,10.49-9.94,17.69-13.06,26.12-1.25,3.37,3.41,5.68,5.33,2.64,17.13-27.1,29.32-46.95,59.61-70.54,1.73-1.35,4.28-.4,4.72,1.75Z"/>
  <path class="st1" d="M112.83,288.62c57.96-2.45,131.98,82.32,165.93,124.4,6.79,8.42,17.96,24.8,16.13,36.11-1.54,9.47-13.71,17.67-23.28,14.55-24.71-8.88-39.12-43.63-52.16-64.64-18.17-26.98-51.86-63.77-81.99-77.07-71.14-31.38-17.32,54.18-11.96,80.1l-19.88-1.17c-12.68-32.86-51.16-102.41,7.21-112.27Z"/>
  <g>
    <g>
      <path class="st0" d="M297.6,603.63c-5.32-9.87,4.7-20.86,15.05-16.56,12.25,5.09,24.74,9.29,39.84,11.19,9.07,1.72,23.06-1.76,31.58,1.07,27.62,9.18,54.57,17.09,82.6,24.21,4.96,1.26,8.56,5.54,8.94,10.64,4.72,64.59,20.37,104.36,67.48,141.33,7.88,6.19,19.38.41,19.18-9.61-.37-18.96,1.42-30.33,8-49.6,2.74-8.02,12.81-10.62,19.13-4.97,26.74,23.88,48.32,38.9,84.86,53.14,3.78,1.47,6.56,4.8,7.34,8.78,6.62,33.76,12.17,53.21,24.45,85.25,1.5,3.91.83,8.32-1.76,11.61-4.89,6.24-10.38,12.82-15.06,18.69-23.45,29.36-56.79,69.67-83.88,99.19-4.63,5.04-12.56,5.12-17.29.17-24.77-25.92-52.3-59.6-74.46-85.77-62.44-73.71-122.99-152-176.13-232.68-11.18-16.97-27.3-42.73-39.88-66.08Z"/>
      <path class="st0" d="M590.59,32.21c10.02-.15,21.56.17,32.3,1.05,4.03.33,5.58,5.41,2.42,7.93-14.96,11.92-22.05,18.11-36.98,33.07-2.21,2.21-5.91,1.5-7.22-1.33-2.46-5.32-4.51-11.05-6.46-16.65-1.11-3.19-5.23-4.04-7.49-1.53-7.62,8.48-15.65,19.63-22.27,28.7-1.47,2.01-4.3,2.41-6.28.9l-2.09-1.6c-2.42-1.85-5.95-.78-6.92,2.11-5.31,15.85-10.06,34.45-14.26,50.37-.54,2.04-2.46,3.41-4.57,3.28-44.25-2.75-76.56-5.99-101.91-9.83-8.95-1.36-24.45-3.91-40.29,3.47-11.67,5.44-19.11,14.47-27.52,24.56-17.42,20.89-21.09,35.63-28.05,34.64-4.54-.65-8.08-7.62-8.33-13.6-.56-13.43,5.64-17.6,12.9-25.44,69.3-74.88,172.03-116.43,273.03-120.09Z"/>
      <path class="st0" d="M646.42,43.63c-.21-4.01,3.34-7.17,7.32-6.62,13.69,1.88,27.24,4.66,40.57,8.31,79.55,21.59,159.22,76.15,204.07,146.42,2.76,4.33-.56,9.99-5.69,9.76-7.99-.36-15.99-.14-23.96.68-16.69,1.16-51.44,14.44-66.3,10.92-2.27-.54-4.07-2.36-4.56-4.65-.97-4.56.03-10.33,1.18-15.69.78-3.65-1.77-7.19-5.48-7.64l-10.81-1.33c-3.42-.42-5.88-3.49-5.59-6.93.4-4.68.99-8.92,1.72-13.52.62-3.88-2.36-7.39-6.28-7.43-4.63-.04-9.13-.13-13.78-.34-3.38-.16-6.09-2.93-6.12-6.31-.07-6.22.22-11.89.63-18,.26-3.96-3.11-7.21-7.06-6.8-5.98.62-11.31,1.21-17.46,1.31-3.47.05-6.39-2.63-6.53-6.09-.26-6.5,0-14.13.28-20.93.18-4.21-3.69-7.43-7.79-6.49-7.36,1.67-15.76,3.53-21.5,2.01-1.94-.51-3.5-1.98-4.18-3.87-2.1-5.83-1.91-15.64-1.57-23.74.19-4.37-4.01-7.65-8.21-6.38-7.66,2.31-14.74,5.28-22.44,7.91-3.71,1.26-7.73-1.01-8.41-4.87-1.14-6.51-1.72-13.09-2.06-19.7Z"/>
    </g>
    <path class="st0" d="M961.3,400.09l.57.5c2.88,6.28-.99,33.12-4.12,50.28-.6,3.3-5.21,3.58-6.23.39l-.39-1.22c-3.72-12.21-9.2-24.42-14.6-36.13-.92-2.01.41-4.32,2.61-4.54,9.4-.96,13.15-2.97,22.15-9.27Z"/>
  </g>
  <path class="st1" d="M914.39,221.1c-33.48-9.9-95.54,1.34-124.35,21.32-.55.38-.58,1.18-.1,1.64,27.2,25.96,50.58,44.31,72.57,75.27.73,1.03-.66,2.23-1.57,1.36-20.4-19.42-41.21-38.81-64.42-55.39-90.26-64.5-210.46-110.06-322.31-109.23-1.85.01-6.1.71-11.99.44-26.55-1.23-35.98-16.43-56.98-20.61-15.29-3.04-32.05.7-43.89,8.06-21.26,13.2-14.72,30.61-38.16,51.8-9.26,8.37-20.68,13.11-43.17,23.36-15.91,7.25-31.93,12.89-53.72,19.82-20.98,6.67-59.5,31.4-79.82,44.52-.68.44-.59,1.45.15,1.8,34.08,16.13,44.72,27.77,73.39,54.45,19.46,18.11,39.16,29.15,59.97,50.97,21.75,22.8,52.88,60.58,7.13,81.78-17.33,8.03-39.89-14.97-56.09-17.57-27.17-4.68-67.43,4.62-95.63.26-1.2-.19-1.17-1.94.04-2.07,30.48-3.39,66.72-8.21,96.14-4.16,1.06.15,1.65-1.2.8-1.85-34.06-26.17-71.37-28.21-113.05-32.26-16.12-1.57-31.88-4.41-47.96-3.08-25.93,2.15-18.44,30.83-1.83,40.38,11.79,6.78,23.93,10.07,35.74,16.55,24.85,15.05,47.57,31.51,73.04,45.7,28.33,16.25,59.58,24.27,89.81,35.68,25.88,9.78,49.55,25.22,77.24,30.83,22.05,4.46,40.3,3.62,61.05-2.68,1.07-.32.97-1.87-.14-2.03-26.5-3.83-59.69-9.69-82.39-24.61-1-.65-.25-2.2.9-1.87,54.9,16.06,84.05,24.8,140.75,6.66,1.11-.36,1.89,1.12.97,1.83-17.69,13.49-40.03,21.55-61.27,28.1-.94.29-1,1.61-.08,1.97,26.7,10.56,56.37,17.27,84.47,22.75.48.09.83.51.83,1.01.05,52.84,10.59,116.75,56.08,150.21.7.51,1.69-.02,1.69-.88.04-41.09,8.79-41.02,16.06-76.27l-.66-1.24c-15.9-29.42-27.42-37.53-37.87-71.7-.35-1.16,1.2-1.89,1.87-.88,41.46,62.09,80.13,113.91,155.55,140.73.89.32,1.72-.62,1.28-1.46-1.86-3.59-3.76-7.29-5.71-10.72-4.23-8.18-11.45-24.65-12.43-33.47-6.58-58.8-15.03-59.13-59.04-83.91-1-.56-.51-2.08.63-1.94,64.53,8.35,132.24,7.56,193.19,31.49,38.81,15.25,51.55,39.41,38.9,76.95-.37,1.11-2.02.84-2.04-.33-.6-33.18-8.38-49.61-42.05-64.17l-.98,1.08c-31.07,33.9-95.22,17.92-103.24,67.87-2.01,12.51,14.08,29.77,23.22,38.06l1.21,1.07-17.77-2.06c-.66-.08-1.24.47-1.17,1.13,3.97,37.25,33.72,116.62,57.95,146.56,10.64,13.14,28.67.81,37-11.82,28.63-43.08,35.14-93.4,50.11-141.12,3.34-10.68,35.8-44.52,45-55.42,88.16-104.67,73.8-211.49,17.53-324.27-.43-.85.42-1.79,1.31-1.45,27.41,10.45,45.29,20.1,56.9-17.44,14.61-47.19,7.77-128.75-48.57-145.55ZM246.02,283.25c-7.41,1.2-14.24.79-15.8-7.89.9-4.13,2.16-4.73,5.29-7.56,7.18-.26,13.73-.03,15.97,7.88-1.02,4.33-2.07,4.73-5.46,7.57ZM780.19,794.16c-2.47,2.66-5.53,3.29-9.93,4.19-3.19.65-5.68,1.16-8.42.05-2.17-.89-3.39-2.46-5.83-5.59-3.03-3.89-4.83-6.21-4.7-9.3.09-2.16,1.07-3.63,2.59-5.85,2.2-3.22,6.22-9.08,12.19-9.24,3.36-.09,5.83,1.67,9.02,3.94,3.15,2.25,6.42,4.57,7.73,8.98,1.21,4.04.61,9.31-2.64,12.82ZM287.18,292.36c-2.35-21.89,13.56-41.52,35.47-43.74,21.72-2.2,41.14,13.55,43.47,35.26,2.33,21.71-13.3,41.22-34.99,43.69-21.88,2.48-41.6-13.31-43.95-35.2ZM181.72,487.92c15.9-.26,81.54,18.71,98.88,23.17,8.74,2.25,44.54,11.03,52.19,14.11-44.3,4.06-111.16-18.53-151.07-37.28ZM320.5,491.56c30.41,9.13,54.59,19.07,87.66,11.63,20.77-4.5,38.86-17.16,50.2-35.15,22.89-37.06,11.03-97.13,1.99-136.91,5.82,3.69,9.02,13.62,11.81,19.72,14.07,30.76,20.85,84.3,6.92,116.09-8.88,19.87-25.25,35.42-45.56,43.25-32.1,12.4-63.04,6.01-93.3-7.54-8.24-3.78-12.04-6.13-19.71-11.1ZM580.59,413.89c-12.82,98.42-109.5,154.1-200.87,131.4-6.29-1.84-12.41-4.89-18.38-7.65,23.38,2.53,40,5.07,64.06,2.37,43.54-4.88,86.3-26.64,114.14-60.58,18.68-22.77,23.42-56.22,32.37-83.13,6.1-16.42,19.19-32.98,16.25-51.35-1.53-7.87-13.15-19.58-19.32-24.55-20.12-16.21-31.49-36.62-47.59-55.97-5.99-7.2-16.29-15.03-23.83-20.76,8.32.86,13.38,4.88,20.24,9.23,18.7,11.84,29.95,29.98,45.24,45.42,11.84,11.95,25.86,20.69,34.88,35.65,15.87,26.27-14.91,53.4-17.2,79.93ZM852.75,427.94c-14.69,8.31-26.33,15.19-38.94,27.94-31.56,31.92-52.88,80.48-101.07,90.97-31.43,6.84-70.26-11.45-98.87-28.95-1.97-1.2-.56-4.22,1.64-3.53,30.46,9.52,53.1,25.2,88.25,22.45.09,0,.17-.02.26-.03,42.97-7.49,66.93-52.94,94.09-82.29,9.73-10.51,15.73-15.29,26.46-22.67,1.38-.95,1.02-3.12-.61-3.53-60.7-15.18-128.17-6.33-187.11,12.4-10.43,3.31-26.25,9.67-36.64,7.1l-.5-1.66c5.84-5.56,17.59-8.77,25.23-11.75,37.48-14.61,70.08-22.36,110.16-25.79,36.28-4.35,82.44,3.75,117.35,15.81,1.59.55,1.76,2.72.3,3.55Z"/>
</svg>